<?xml version="1.0" standalone="no"?>
<!DOCTYPE svg PUBLIC "-//W3C//DTD SVG 20010904//EN"
 "http://www.w3.org/TR/2001/REC-SVG-20010904/DTD/svg10.dtd">
<svg version="1.0" xmlns="http://www.w3.org/2000/svg" viewBox="0 0 191.000000 187.000000"
 preserveAspectRatio="xMidYMid meet">
<metadata>
Created by potrace 1.16, written by Peter Selinger 2001-2019
</metadata>
<g transform="translate(0.000000,187.000000) scale(0.100000,-0.100000)"
fill="#24365f" stroke="none">
<path d="M770 1856 c-289 -61 -543 -255 -667 -509 -50 -102 -68 -158 -88 -271
-33 -195 -14 -330 59 -402 79 -78 206 -107 476 -108 398 -2 721 97 746 229 23
122 -70 188 -266 189 -86 0 -113 -4 -152 -21 l-47 -21 9 24 c34 89 95 145 188
174 181 56 404 -17 474 -154 53 -102 6 -246 -120 -374 -219 -221 -541 -244
-1172 -82 -63 16 -115 28 -117 27 -7 -8 54 -133 93 -190 110 -160 292 -278
520 -338 76 -20 113 -24 254 -24 140 1 178 4 250 24 175 47 324 134 441 259
83 87 119 140 169 244 196 410 57 912 -324 1171 -80 54 -205 111 -301 137
-102 28 -327 36 -425 16z m476 -352 c103 -51 119 -120 51 -220 -18 -26 -37
-49 -42 -51 -6 -2 -17 13 -24 33 -7 20 -32 56 -55 79 -98 97 -244 83 -434 -45
-105 -70 -267 -233 -314 -316 l-33 -59 -3 68 c-7 169 72 311 235 417 133 88
290 131 454 127 95 -3 113 -7 165 -33z"/>
</g>
</svg>
